<?xml version="1.0" encoding="UTF-8" standalone="no"?>
<!DOCTYPE svg PUBLIC "-//W3C//DTD SVG 1.1//EN" "http://www.w3.org/Graphics/SVG/1.1/DTD/svg11.dtd">
<svg width="100%" height="100%" viewBox="0 0 1024 1024" version="1.1" xmlns="http://www.w3.org/2000/svg" xmlns:xlink="http://www.w3.org/1999/xlink" xml:space="preserve" xmlns:serif="http://www.serif.com/" style="fill-rule:evenodd;clip-rule:evenodd;stroke-linejoin:round;stroke-miterlimit:2;">
    <g>
        <path d="M804.185,565.235C811.987,567.372 819.918,570.812 827.138,574.447C836.148,578.983 846.084,583.68 854.404,589.382C869.944,600.033 889.568,622.581 895.463,640.77C903.647,666.017 905.101,680.186 899.093,706.179C897.389,713.55 895.637,720.978 892.128,727.729C875.111,760.464 840.831,786.608 806.163,797.948C740.085,819.562 671.85,808.366 608.484,783.339C596.559,778.63 585.233,772.852 573.536,767.699C559.402,761.471 544.947,755.537 531.018,748.895C525.037,746.044 519.226,742.88 513.179,740.158C505.238,736.585 497.11,733.57 489.068,730.255C484.939,728.554 480.972,726.415 476.762,724.922C472.772,723.506 468.586,722.696 464.555,721.414C459.628,719.848 454.883,717.733 449.938,716.206C434.135,711.326 417.706,710.121 401.287,711.1C392.814,711.604 384.758,712.404 376.629,715.049C368.144,717.809 359.397,721.927 355.33,730.409C353.061,735.092 352.87,740.514 354.804,745.345C360.094,758.682 377.286,758.238 388.842,755.102C401.804,751.585 411.967,739.222 424.067,734.065L424.739,733.783C443.794,728.655 450.763,745.892 440.531,759.788C420.501,786.99 361.416,792.068 334.616,772.826C323.692,765.061 316.351,753.226 314.25,739.988C311.666,724.589 315.352,708.797 324.483,696.132C331.141,686.945 344.477,676.344 355.167,672.811C380.655,664.385 412.44,660.697 438.925,664.51C473.119,669.434 506.18,679.815 538.332,692.056C543.998,694.213 549.226,697.685 554.888,699.893C589.818,712.516 622.911,729.949 659.018,739.235C709.956,751.758 780.328,756.89 818.056,712.748C826.53,702.072 829.87,676.58 824.998,664.355C819.863,651.466 815.566,646.611 816.456,631.266C816.512,630.297 813.908,619.316 813.569,617.395L804.185,565.235Z" style="fill:rgb(25,100,195);fill-rule:nonzero;"/>
        <path d="M233.271,207.722C239.454,208.253 245.907,208.046 251.969,208.936C256.656,209.625 261.987,211.498 266.685,212.608C312.202,223.363 344.667,259.004 387.711,275.644C416.131,286.632 434.202,277.33 459.204,264.368C468.62,237.004 492.046,235.078 515.783,225.618C522.593,222.903 527.877,219.268 535.354,217.14C549.063,213.239 562.562,209.873 576.952,210.192C589.536,210.47 603.002,209.011 612.533,219.16C621.739,228.974 618.586,244.231 609.69,253.037L610.573,253.025C621.719,252.951 636.48,248.571 644.913,240.864C650.394,235.854 652.155,232.025 659.267,230.268C658.184,234.015 657.413,237.582 656.569,241.391C660.369,240.199 669.389,237.453 672.182,241.049L671.828,242.3C667.298,247.371 658.479,250.068 652.162,252.845C656.051,254.352 660.543,256.227 662.58,260.116C662.495,263.032 659.256,263.677 656.807,263.698C639.94,263.844 622.151,264.388 605.394,264.618C595.9,272.467 596.444,275.582 583.158,281.046C570.202,286.374 559.6,290.394 545.26,291.552C541.328,292.493 534.944,292.175 531.321,293.275C515.24,298.156 503.882,297.352 487.375,296.943C482.108,296.766 471.371,303.848 466.053,306.175C427.75,322.933 389.262,318.328 350.06,307.716C338.81,304.67 326.794,299.012 315.259,295.823C277.689,285.435 218.83,260.048 194.552,305.844C195.559,311.08 193.887,316.98 193.938,322.317C194.24,354.171 194.012,386.02 192.887,417.849C192.669,424.023 193.006,429.103 191.661,435.267C159.911,422.542 114.415,369.715 112.342,335.696C108.437,271.616 158.323,213.492 222.118,209.116C225.62,208.875 229.625,208.085 233.271,207.722ZM545.004,234.666C541.589,235.379 538.609,237.444 536.741,240.39C531.349,249.061 538.468,259.342 548.054,258.457C552.259,256.902 555.978,255.488 557.669,250.962C561.693,240.193 555.451,233.881 545.004,234.666Z" style="fill:rgb(25,100,195);"/>
        <path d="M671.722,297.212C717.254,294.037 726.046,368.887 723.794,401.145C721.774,430.095 715.476,466.879 688.29,483.665C684.177,486.204 676.863,489.292 672.126,489.13C661.101,489.132 650.458,485.09 642.215,477.77C610.458,449.617 614.275,371.731 631.443,336.422C639.796,319.241 650.194,298.332 671.722,297.212ZM671.566,344.499C649.438,354.609 649.398,412.179 655.859,432.04C658.361,439.731 664.44,443.729 672.551,443.569C677.025,441.847 679.059,439.668 681.446,435.509C694.988,411.916 692.998,380.063 685.37,354.867C683.329,348.127 678.315,345.027 671.566,344.499Z" style="fill:rgb(25,100,195);"/>
        <path d="M828.374,300.702C829.869,300.57 831.373,300.587 832.865,300.751C840.714,301.636 835.57,316.113 834.974,320.62C829.802,359.721 830.157,400.937 831.055,440.336C831.289,448.637 831.665,456.933 832.183,465.22C833.365,482.504 840.182,486.655 822.491,486.929C798.127,488.866 802.449,484.094 795.919,464.409C787.385,438.687 775.711,413.435 765.404,388.166C765.128,393.088 765.112,398.058 765.323,403.048C766.269,425.473 767.384,448.017 769.05,470.396C769.312,473.918 770.381,483.965 768.318,486.396C765.33,487.808 759.615,486.867 756.125,486.549C749.454,485.945 738.349,488.012 733.547,484.218C730.135,478.707 733.856,456.422 734.267,448.602C735.649,422.307 737.489,396.14 736.253,369.746C736.013,364.624 736.757,359.063 736.43,353.871C735.435,338.094 734.314,322.45 733.443,306.658C733.084,300.14 743.003,302.328 747.319,301.665C750.278,301.211 758.079,301.382 760.841,302.384C773.104,306.833 774.986,326.343 779.585,336.977C781.815,342.31 784.299,347.583 786.04,352.518C790.307,364.614 794.868,376.425 800.928,387.691L801.203,388.194C801.716,371.334 800.883,344.205 799.25,327.512C795.554,289.733 798.092,305.038 827.396,300.847L828.374,300.702Z" style="fill:rgb(25,100,195);fill-rule:nonzero;"/>
        <path d="M265.18,498.206C275.119,497.001 277.854,505.852 279.84,513.923C286.936,541.705 287.495,570.766 291.884,598.956C296.032,622.111 298.463,645.554 302.974,668.664C304.641,677.205 306.385,683.115 295.846,686.035C291.008,687.375 277.616,692.459 273.252,690.431C268.34,684.528 268.822,668.76 267.926,661.747C266.917,653.86 265.788,643.577 264.142,635.976L263.941,635.066C238.875,641.231 237.431,633.722 234.593,661.876C234.58,667.503 233.206,701.48 231.425,704.124C229.607,706.821 206.29,714.718 201.908,715.741C199.857,716.22 197.074,716.776 195.226,715.467C194.275,714.793 193.776,713.175 193.676,712.039C193.339,708.209 197.076,687.473 197.741,682.095C199.252,669.878 200.583,657.732 202.391,645.538C203.368,638.946 204.825,632.433 205.778,625.832C207.877,611.295 209.155,596.674 211.54,582.156C214.181,567.006 217.767,552.036 222.279,537.335C230.324,510.626 235.451,500.364 265.18,498.206ZM253.524,550.252C244.017,570.123 242.539,586.147 239.821,607.243L246.031,605.568C250.475,604.473 256.01,603.102 260.603,602.815C259.87,595.718 255.68,554.378 253.524,550.252Z" style="fill:rgb(25,100,195);"/>
        <path d="M605.38,301.559C607.834,301.899 609.793,304.427 611.414,306.22C611.257,312.157 609.572,317.767 608.86,323.569C606.184,345.347 606.991,367.089 607.192,388.953C607.311,401.943 607.145,415.118 607.599,428.175C607.998,440.543 609.077,452.88 610.832,465.129C611.519,469.875 613.051,477.153 613.103,481.894C613.12,483.419 609.67,485.521 608.245,486.441C602.727,486.689 577.631,488.705 574.32,486.296C571.542,480.204 573.518,464.213 573.81,457.206C574.321,445.059 574.577,432.902 574.579,420.744C561.556,421.292 552.892,421.519 539.929,420.221C541.182,433.198 541.509,446.626 541.577,459.661C541.607,465.371 543.664,478.928 541.66,483.636C537.381,487.909 524.902,487.149 518.739,487.144C503.267,487.132 503.401,486.081 504.941,472.622C505.488,464.371 506.822,454.015 506.738,445.907C506.637,436.184 507.479,426.684 507.551,417.189C507.747,390.415 507.429,363.639 506.597,336.877C506.424,331.356 504.093,310.285 506.148,306.524C510.689,302.811 521.806,304.206 527.533,303.529C530.84,303.547 540.291,301.294 542.66,303.801C543.549,304.741 543.179,310.767 543.049,312.619C542.681,317.881 541.284,323.501 540.986,328.84C539.875,348.726 538.754,369.126 539.485,389.046C550.666,390.927 564.17,388.385 575.938,388.494C574.917,378.67 575.307,369.209 574.804,359.41C573.907,341.894 573.713,324.959 571.386,307.538C575.021,304.345 576.759,303.73 581.175,302.18C586.896,304.385 599.833,303.738 605.38,301.559Z" style="fill:rgb(25,100,195);fill-rule:nonzero;"/>
        <path d="M618.311,498.507C619.882,498.371 641.158,499.358 643.029,499.585C662.018,501.897 681.735,507.093 693.967,522.853C702.095,533.327 706.316,548.898 704.217,561.872C700.76,583.245 694.052,591.669 678.02,604.053C685.991,618.977 690.635,635.493 696.982,651.207C700.399,659.604 704.297,668.099 707.091,676.708C707.832,678.989 709.504,685.607 706.417,686.214C705.108,686.471 702.903,686.536 701.586,686.268C696.926,685.32 692.394,683.875 687.714,683.002C681.86,681.731 676.202,682.675 670.845,679.969C668.666,678.868 668.562,677.987 667.888,675.73C666.128,665.394 665.442,653.608 662.378,643.672C659.595,634.647 655.975,624.962 653.136,615.875C651.701,611.281 644.995,614.153 641.768,615.426C643.302,625.383 642.812,637.227 644.544,647.631C645.646,654.251 647.887,664.694 647.364,670.851C642.837,674.23 617.319,669.745 611.729,667.468C610.024,653.467 613.958,634.796 614.605,620.289C615.118,608.788 614.671,599.136 614.642,587.942L614.531,543.893C614.412,533.244 614.501,522.326 612.036,511.921C610.091,503.708 610.404,501.563 618.311,498.507ZM643.35,530.956C646.104,548.723 640.999,565.069 642.561,582.66C648.023,580.679 656.71,577.906 661.328,574.792C664.092,572.238 667.288,569.446 668.722,565.904C676.475,546.765 662.325,531.31 643.35,530.956Z" style="fill:rgb(25,100,195);"/>
        <path d="M762.773,499.588C765.415,499.229 767.536,499.589 770.042,499.554C783.82,499.359 788.91,506.347 791.468,519.012C793.796,530.536 795.102,542.483 796.474,554.279L803.027,613.018C803.615,618.274 804.883,623.704 805.351,628.917C807.492,652.744 811.737,676.241 812.957,700.159C813.454,702.534 812.914,709.088 809.216,708.919C804.048,708.682 785.642,706.731 782.582,703.271C780.388,700.79 779.9,685.603 779.612,681.614C778.592,667.522 777.627,653.662 776.152,639.614L775.336,638.863C767.201,639.955 758.922,640.12 750.948,641.897C750.695,649.012 749.869,656.516 749.456,663.638C749.11,669.598 750.962,693.732 745.031,697.082C741.22,697.747 738.197,696.925 734.535,695.929C723.762,692.997 713.477,695.129 715.558,680.089C717.446,666.445 720.384,652.629 722.585,638.997C723.614,632.629 723.751,625.687 724.603,619.264C730.071,583.047 731.263,542.263 747.509,508.948C750.565,502.688 756.645,500.887 762.773,499.588ZM764.648,549.766C757.434,570.586 754.705,584.753 752.278,606.743L759.882,605.322C763.976,604.29 768.039,603.141 772.067,601.875C771.567,594.645 768.603,552.868 764.648,549.766Z" style="fill:rgb(25,100,195);"/>
        <path d="M221.027,299.284C275.247,295.347 319.307,334.682 294.892,390.392C284.584,413.912 264.755,424.726 240.143,429.154C237.789,435.116 238.419,439.633 238.621,445.889C238.585,456.219 239.52,466.545 239.488,476.862C239.481,479.068 239.471,482.755 237.582,484.241C234.345,486.788 212.993,486.967 208.348,486.212C206.053,485.839 203.828,485.144 202.502,483.1C198.739,477.296 203.336,449.976 204.182,442.538C205.37,432.1 205.033,421.293 205.357,410.789C206.023,389.196 206.665,367.426 206.305,345.833C206.143,336.115 203.985,312.275 205.668,304.361C206.177,301.969 208.194,300.663 210.103,299.43C213.925,299.477 217.215,299.472 221.027,299.284ZM238.842,332.385C241.321,347.082 237.375,368.443 236.972,383.526C236.691,394.032 237.955,397.685 249.313,392.615C252.922,391.005 255.079,389.128 258.01,386.596C262.012,382.481 264.422,379.313 266.308,373.799C271.692,358.054 262.47,337.761 245.979,333.442C243.723,332.851 241.191,332.628 238.842,332.385Z" style="fill:rgb(25,100,195);"/>
        <path d="M391.162,498.28C395.564,497.975 405.269,497.301 404.714,503.66C400.951,546.722 403.433,589.972 402.959,633.157C402.867,636.767 404.434,650.592 401.435,652.658C399.111,654.259 377.545,655.934 374.195,655.418C365.064,634.183 358.939,611.76 347.083,591.544C344.917,587.851 343.222,582.995 340.952,578.934C340.043,596.304 342.85,620.797 344.516,638.503C347.454,669.716 349.463,659.249 321.344,667.731C319.104,668.133 312.476,669.708 310.704,668.559C307.69,661.13 310.524,650.4 310.56,642.495C310.747,601.095 313.483,559.576 309.387,518.295C309.033,514.735 307.018,504.53 310.615,502.891C318.819,499.154 328.153,498.837 336.846,500.877C340.3,504.204 343.634,510.062 345.584,514.441C355.01,535.609 362.723,556.414 373.84,576.832C374.85,558.793 372.411,540.955 371.553,522.997C371.277,517.24 369.327,504.994 371.613,499.838C375.155,497.996 386.492,498.43 391.162,498.28Z" style="fill:rgb(25,100,195);fill-rule:nonzero;"/>
        <path d="M423.664,497.563C424.837,497.371 450.515,497.968 451.61,498.194C454.601,502.891 449.898,532.822 449.4,541.01C448.973,548.487 448.856,555.979 449.049,563.465C457.58,548.153 462.839,536.335 469.466,520.139C472.227,513.39 472.487,508.848 476.429,502.007C482.22,499.55 507.828,497.589 510.125,503.128C509.816,509.803 500.284,525.107 496.461,531.561C489.314,543.625 481.777,560.492 472.726,570.865C480.027,578.136 479.074,582.134 483.086,590.486C489.497,603.832 494.6,616.943 499.942,630.764C503.719,637.723 506.844,643.827 509.776,651.177C501.563,654.517 480.801,655.104 472.123,652.81C468.395,651.825 467.029,641.354 466.261,637.921C464.593,630.461 463.015,622.649 460.559,615.32C457.795,607.071 452.469,599.878 449.516,591.731C447.732,606.327 449.221,619.336 449.875,633.869C450.065,638.091 451.622,649.302 448.415,651.737C443.621,651.693 417.144,652.718 414.865,650.912C413.576,648.479 415.351,630.806 415.783,626.21C419.693,584.574 417.639,542.937 418.48,501.361C418.518,499.486 422.155,498.227 423.664,497.563Z" style="fill:rgb(25,100,195);fill-rule:nonzero;"/>
        <path d="M564.696,498.172C566.23,497.945 567.862,497.99 569.412,497.983C572.064,497.971 574.445,498.472 576.329,500.49C585.978,510.83 596.696,614.16 599.181,634.739C600.3,644.005 602.939,653.348 602.897,662.676C599.335,666.671 587.242,663.247 582.548,663.306C568.417,663.485 570.809,653.421 569.648,641.805C568.731,632.405 567.716,623.015 566.604,613.637C563.443,613.505 561.535,613.528 558.377,613.731C545.097,614.966 547.827,614.847 546.606,626.466C545.562,636.401 545.803,647.663 543.595,657.138C542.89,660.165 529.899,657.855 527.686,657.343C523.516,657.04 512.252,658.187 512.461,652.08C512.847,640.869 515.91,627.023 517.616,615.996C520.879,594.905 523.97,574.057 528.296,553.196C531.448,537.647 533.534,521.336 543.055,508.038C548.86,499.93 555.599,499.524 564.696,498.172ZM559.067,542.773C554.42,553.86 552.595,563.966 551.043,575.827C550.518,579.847 550.497,584.01 549.732,587.927L554.571,587.109C558.74,586.334 560.655,586.053 564.859,585.892C564.174,579.132 561.396,546.34 559.067,542.773Z" style="fill:rgb(25,100,195);"/>
        <path d="M302.162,303.184C307.908,302.905 323.543,302.524 327.349,307.661C334.87,317.813 336.166,332.707 340.627,344.451C343.298,351.483 344.717,361.221 348.966,367.294C353.729,357.473 357.119,346.685 359.926,336.148C360.787,332.916 362.333,322.598 364.436,320.804C366.424,320.333 374.027,322.382 377.035,322.807C381.791,323.479 390.209,323.303 394.095,325.066C395.223,327.354 394.984,329.336 394.305,331.761C392.233,339.168 388.264,346.225 385.539,353.425C381.42,364.309 377.725,375.428 373.443,386.239C371.922,390.077 368.085,395.541 367.3,399.417C365.453,408.54 365.444,420.174 365.589,429.453C367.215,446.223 367.369,464.456 368.953,481.39C369.139,483.368 368.656,484.817 367.473,486.316C363.571,488.033 338.66,488.046 333.783,486.81C327.301,485.167 330.868,466.479 331.199,461.076C332.138,445.716 332.96,429.922 332.806,414.457C332.706,404.369 329.481,398.305 326.183,389.067C319.741,365.518 308.235,344.398 297.525,322.605C295.244,317.962 292.473,313.681 290.23,308.841C290.597,305.061 299.057,303.55 302.162,303.184Z" style="fill:rgb(25,100,195);fill-rule:nonzero;"/>
        <path d="M486.377,314.573C495.186,316.701 490.783,329.421 490.904,335.945C490.971,339.59 490.194,345.687 488.356,348.736C485.031,350.316 469.956,348.204 464.04,348.328C463.993,384.637 461.259,421.632 462.143,458.075C462.349,466.61 463.19,475.691 461.935,484.066C458.79,486.95 454.352,487.497 450.188,487.408C427.076,486.917 427.129,487.533 428.47,465.125C428.549,456.486 429.612,447.331 429.643,438.516C429.718,417.736 430.439,396.919 430.551,376.128C430.6,367.095 432.091,357.938 432.026,349.542C415.028,347.203 398.823,359.939 403.84,335.416C404.441,332.482 404.276,329.659 405.126,326.534C406.129,325.576 408.452,324.717 409.804,324.873C437.408,328.065 459.948,322.353 486.377,314.573Z" style="fill:rgb(25,100,195);fill-rule:nonzero;"/>
        <path d="M715.335,585.064C717.011,584.96 718.094,584.721 719.622,585.393C720.868,589.096 715.937,622.744 714.164,628.071C711.22,630.965 705.266,627.11 702.674,625.119C697.821,620.526 695.156,615.469 693.287,609.144C695.457,599.029 705.296,587.858 715.335,585.064Z" style="fill:rgb(25,100,195);fill-rule:nonzero;"/>
    </g>
</svg>
